HIERARCHY
ROOT SpineBase
{
  OFFSET 0.000000 0.000000 0.000000
  CHANNELS 6 Xposition Yposition Zposition Zrotation Xrotation Yrotation
  JOINT SpineMid
  {
    OFFSET 0.000000 27.854411 0.000000
    CHANNELS 3 Zrotation Xrotation Yrotation
    JOINT SpineShoulder
    {
      OFFSET 0.004888 20.706616 -0.656657
      CHANNELS 3 Zrotation Xrotation Yrotation
      JOINT Neck
      {
        OFFSET -0.011233 6.852694 -0.508444
        CHANNELS 3 Zrotation Xrotation Yrotation
        JOINT Head
        {
          OFFSET -2.910672 11.332756 -1.594571
          CHANNELS 3 Zrotation Xrotation Yrotation
          End Site
          {
            OFFSET 0 0 0
          }
        }
      }
      JOINT ShoulderLeft
      {
        OFFSET -16.282538 -1.974259 7.818636
        CHANNELS 3 Zrotation Xrotation Yrotation
        JOINT ElbowLeft
        {
          OFFSET -3.084709 -21.016685 -1.634700
          CHANNELS 3 Zrotation Xrotation Yrotation
          JOINT WristLeft
          {
            OFFSET 4.454880 -5.181554 -22.978420
            CHANNELS 3 Zrotation Xrotation Yrotation
            JOINT HandLeft
            {
              OFFSET -0.105988 -1.356148 -4.399605
              CHANNELS 3 Zrotation Xrotation Yrotation
              JOINT HandTipLeft
              {
                OFFSET 1.828045 -1.096362 -2.882503
                CHANNELS 3 Zrotation Xrotation Yrotation
                End Site
                {
                  OFFSET 0 0 0
                }
              }
              JOINT ThumbLeft
              {
                OFFSET -3.068931 0.146193 -1.510899
                CHANNELS 3 Zrotation Xrotation Yrotation
                End Site
                {
                  OFFSET 0 0 0
                }
              }
            }
          }
        }
      }
      JOINT ShoulderRight
      {
        OFFSET 14.778960 -1.254216 -7.136306
        CHANNELS 3 Zrotation Xrotation Yrotation
        JOINT ElbowRight
        {
          OFFSET 7.103105 -20.063786 -3.874264
          CHANNELS 3 Zrotation Xrotation Yrotation
          JOINT WristRight
          {
            OFFSET -24.414485 -7.721739 -10.211204
            CHANNELS 3 Zrotation Xrotation Yrotation
            JOINT HandRight
            {
              OFFSET -8.120569 -1.155724 -0.887357
              CHANNELS 3 Zrotation Xrotation Yrotation
              JOINT HandTipRight
              {
                OFFSET -6.804704 -0.710526 -0.942519
                CHANNELS 3 Zrotation Xrotation Yrotation
                End Site
                {
                  OFFSET 0 0 0
                }
              }
              JOINT ThumbRight
              {
                OFFSET -5.381155 2.694356 -2.394091
                CHANNELS 3 Zrotation Xrotation Yrotation
                End Site
                {
                  OFFSET 0 0 0
                }
              }
            }
          }
        }
      }
    }
  }
  JOINT HipLeft
  {
    OFFSET -6.195918 0.156680 -0.838939
    CHANNELS 3 Zrotation Xrotation Yrotation
    JOINT KneeLeft
    {
      OFFSET -4.039542 -35.938018 3.780399
      CHANNELS 3 Zrotation Xrotation Yrotation
      JOINT AnkleLeft
      {
        OFFSET 1.645617 -33.502014 6.755035
        CHANNELS 3 Zrotation Xrotation Yrotation
        JOINT FootLeft
        {
          OFFSET -4.013675 -3.490583 -11.951927
          CHANNELS 3 Zrotation Xrotation Yrotation
          End Site
          {
            OFFSET 0 0 0
          }
        }
      }
    }
  }
  JOINT HipRight
  {
    OFFSET 5.797481 1.316859 -5.527073
    CHANNELS 3 Zrotation Xrotation Yrotation
    JOINT KneeRight
    {
      OFFSET 6.748662 -34.460026 3.715647
      CHANNELS 3 Zrotation Xrotation Yrotation
      JOINT AnkleRight
      {
        OFFSET 1.032943 -32.647758 6.807785
        CHANNELS 3 Zrotation Xrotation Yrotation
        JOINT FootRight
        {
          OFFSET -3.263248 -5.361857 -8.869198
          CHANNELS 3 Zrotation Xrotation Yrotation
          End Site
          {
            OFFSET 0 0 0
          }
        }
      }
    }
  }
}
MOTION
Frames: 14
Frame Time: 0.033333
23.299933 79.887811 355.720726 -0.000000 0.000000 21.350174 -0.000000 0.000000 -21.350174 -0.000000 0.000000 0.000000 -0.000000 0.000000 0.000000 0.000000 0.000000 0.000000 -0.000000 0.000000 0.000000 -0.000000 0.000000 0.000000 -0.000000 0.000000 0.000000 -0.000000 0.000000 0.000000 0.000000 0.000000 0.000000 0.000000 0.000000 0.000000 -0.000000 0.000000 0.000000 -0.000000 0.000000 0.000000 -0.000000 0.000000 0.000000 -0.000000 0.000000 0.000000 0.000000 0.000000 0.000000 0.000000 0.000000 0.000000 -0.000000 0.000000 -21.350174 -0.000000 0.000000 0.000000 -0.000000 0.000000 0.000000 0.000000 0.000000 0.000000 -0.000000 0.000000 -21.350174 -0.000000 0.000000 0.000000 -0.000000 0.000000 0.000000 0.000000 0.000000 0.000000
23.398831 79.911548 355.612304 0.041116 0.191329 21.184954 -0.107480 -0.163540 -21.185176 -0.000000 0.000000 0.000000 -0.000000 0.000000 0.000000 0.000000 0.000000 0.000000 -0.000000 0.000000 0.000000 -0.122711 0.456933 0.922048 0.173003 -1.566259 -1.083467 1.453834 8.275482 6.692791 0.000000 0.000000 0.000000 0.000000 0.000000 0.000000 -0.000000 0.000000 0.000000 -0.000000 0.000000 0.000000 -1.440688 -0.058743 1.395418 1.003745 0.178144 -2.157707 0.000000 0.000000 0.000000 0.000000 0.000000 0.000000 -0.107480 -0.163540 -21.185176 -0.000000 0.000000 0.000000 -0.000000 0.000000 0.000000 0.000000 0.000000 0.000000 -0.107480 -0.163540 -21.185176 -0.000000 0.000000 0.000000 -0.000000 0.000000 0.000000 0.000000 0.000000 0.000000
23.487707 79.931818 355.512399 0.071099 0.359210 21.033970 -0.195292 -0.309755 -21.034721 -0.000000 0.000000 0.000000 -1.068848 -0.122508 -0.183415 0.000000 0.000000 0.000000 -0.000000 0.000000 0.000000 -0.230949 0.780474 1.649696 0.471084 -2.847782 -2.575807 1.389764 14.938931 13.089325 0.000000 0.000000 0.000000 0.000000 0.000000 0.000000 -0.000000 0.000000 0.000000 0.331041 0.095659 -0.746483 -3.073079 -0.254720 3.260066 2.000532 0.320258 -4.167221 0.000000 0.000000 0.000000 0.000000 0.000000 0.000000 -0.195292 -0.309755 -21.034721 -0.000000 0.000000 0.000000 -0.000000 0.000000 0.000000 0.000000 0.000000 0.000000 -0.195292 -0.309755 -21.034721 -0.590049 1.205809 -0.078864 0.270056 -1.751291 0.954047 0.000000 0.000000 0.000000
23.566563 79.948622 355.421011 0.089951 0.503660 20.897604 -0.263695 -0.438441 -20.899008 -0.000000 0.000000 0.000000 -1.475928 -0.194883 -0.261045 0.000000 0.000000 0.000000 -0.000000 0.000000 0.000000 -0.324171 0.985713 2.208707 0.949522 -3.648133 -4.633466 -0.082516 19.318335 19.318268 0.000000 0.000000 0.000000 0.000000 0.000000 0.000000 -0.000000 0.000000 0.000000 0.450184 0.140705 -1.052088 -4.341329 -0.386560 4.396405 2.959938 0.430702 -6.029282 0.000000 0.000000 0.000000 0.000000 0.000000 0.000000 -0.263695 -0.438441 -20.899008 -0.000000 0.000000 0.000000 -0.000000 0.000000 0.000000 0.000000 0.000000 0.000000 -0.263695 -0.438441 -20.899008 -0.764097 1.577711 -0.099198 0.317116 -2.285022 1.291440 0.000000 0.000000 0.000000
23.635397 79.961959 355.338141 0.097672 0.624689 20.776173 -0.312921 -0.549417 -20.778206 -0.000000 0.000000 0.000000 -1.801803 -0.275273 -0.329792 0.000000 0.000000 0.000000 -0.000000 0.000000 0.000000 -0.402446 1.081867 2.616563 1.627093 -3.792088 -7.220438 -2.573934 21.035488 25.264873 0.000000 0.000000 0.000000 0.000000 0.000000 0.000000 -0.000000 0.000000 0.000000 0.536990 0.184269 -1.310172 -5.414003 -0.495543 5.189601 3.862342 0.516001 -7.757938 0.000000 0.000000 0.000000 0.000000 0.000000 0.000000 -0.312921 -0.549417 -20.778206 -0.000000 0.000000 0.000000 -0.000000 0.000000 0.000000 0.000000 0.000000 0.000000 -0.312921 -0.549417 -20.778206 -0.859174 1.798306 -0.109158 0.306126 -2.590543 1.532762 0.000000 0.000000 0.000000
23.694211 79.971830 355.263788 0.094259 0.722306 20.669929 -0.343170 -0.642533 -20.672447 -0.000000 0.000000 0.000000 -2.048419 -0.364156 -0.389906 0.000000 0.000000 0.000000 -0.000000 0.000000 0.000000 -0.466158 1.073184 2.884008 2.465465 -3.238121 -10.055150 -5.379177 19.995234 30.397949 0.000000 0.000000 0.000000 0.000000 0.000000 0.000000 -0.000000 0.000000 0.000000 0.590571 0.226557 -1.519163 -6.284169 -0.566587 5.638495 4.698103 0.583352 -9.381329 0.000000 0.000000 0.000000 0.000000 0.000000 0.000000 -0.343170 -0.642533 -20.672447 -0.000000 0.000000 0.000000 -0.000000 0.000000 0.000000 0.000000 0.000000 0.000000 -0.343170 -0.642533 -20.672447 -0.876003 1.868880 -0.109646 0.237519 -2.667813 1.676923 0.000000 0.000000 0.000000
23.743963 79.986037 355.204534 0.085984 0.801394 20.576268 -0.362173 -0.720044 -20.579145 -0.069428 0.813782 -0.003326 -2.248334 -1.359606 -0.508236 0.000000 0.000000 0.000000 0.069482 -0.813777 0.004313 -0.706152 0.753565 3.694637 5.193199 -0.305881 -17.948308 -6.641091 12.665358 30.173389 0.000000 0.000000 0.000000 0.000000 0.000000 0.000000 0.069482 -0.813777 0.004313 0.835291 0.229644 -1.870355 -7.311737 -0.579471 5.959247 4.868733 0.966319 -12.094487 0.000000 0.000000 0.000000 0.000000 0.000000 0.000000 -0.362173 -0.720044 -20.579145 -0.000000 0.000000 0.000000 -0.000000 0.000000 0.000000 0.000000 0.000000 0.000000 -0.362173 -0.720044 -20.579145 -0.568677 1.834255 -0.051621 -1.879958 1.988032 1.683130 0.000000 0.000000 0.000000
23.781098 79.993364 355.156199 0.053899 0.847773 20.499991 -0.347405 -0.775204 -20.502740 -0.100847 0.855718 -0.005330 -2.279073 -1.572678 -0.565091 0.000000 0.000000 0.000000 0.100937 -0.855707 0.006836 -0.763170 0.620501 3.850179 6.358832 0.135144 -21.340393 -8.732614 5.836835 32.666388 0.000000 0.000000 0.000000 0.000000 0.000000 0.000000 0.100937 -0.855707 0.006836 0.964563 0.298424 -2.274032 -7.884115 -0.716821 6.484917 5.419731 1.207756 -14.797818 0.000000 0.000000 0.000000 0.000000 0.000000 0.000000 -0.347405 -0.775204 -20.502740 -0.615465 -0.563941 -0.154715 0.738804 0.860153 -0.615511 0.000000 0.000000 0.000000 -0.347405 -0.775204 -20.502740 -0.490875 1.382442 -0.052836 -0.362363 -1.709027 1.654128 0.000000 0.000000 0.000000
23.801603 79.991913 355.123090 -0.024211 0.851443 20.524434 -0.275865 -0.805882 -20.526194 -0.173667 0.864558 -0.010164 -2.094740 -1.578667 -0.540398 0.000000 0.000000 0.000000 -0.347746 -0.105816 -0.062364 0.076759 -0.043742 2.596155 4.752711 -1.419006 -16.739238 -10.129846 0.322569 32.568695 0.000000 0.000000 0.000000 0.000000 0.000000 0.000000 -0.632779 -0.752937 0.197131 1.745195 0.310339 -2.844594 -8.083959 -0.954253 7.155329 6.700964 1.045066 -16.574595 0.000000 0.000000 0.000000 0.000000 0.000000 0.000000 -0.275865 -0.805882 -20.526194 -0.705631 -0.689992 -0.180256 0.859816 1.026044 -0.744836 0.000000 0.000000 0.000000 -0.275865 -0.805882 -20.526194 -0.555925 1.138172 -0.074556 1.641047 -6.880261 2.059374 0.000000 0.000000 0.000000
23.822301 79.971089 355.047959 -0.080884 0.889962 20.454908 -0.235245 -0.862112 -20.456049 -0.232167 0.891799 -0.013965 -1.753105 -1.643658 -0.500513 0.000000 0.000000 0.000000 -0.556526 -0.074005 -0.047680 0.624913 -0.196627 1.295525 2.927459 -1.666367 -10.433463 -11.309724 -6.217788 29.831631 0.000000 0.000000 0.000000 0.000000 0.000000 0.000000 -0.657381 -0.622087 0.273762 1.241581 0.335756 -2.668241 -7.383809 -0.883289 5.932885 8.942040 -0.085584 -12.234712 0.000000 0.000000 0.000000 0.000000 0.000000 0.000000 -0.235245 -0.862112 -20.456049 -0.749545 -0.917121 -0.201921 0.939195 1.301908 -0.906519 0.000000 0.000000 0.000000 -1.040589 -0.796011 -20.594689 0.079459 1.113164 0.016622 1.633490 -5.081502 1.265610 0.000000 0.000000 0.000000
23.838777 79.934395 354.953886 -0.130140 0.921491 20.461523 -0.136868 -0.077711 -20.469042 -0.016602 0.107388 -0.009267 -1.363745 -1.832442 -0.484973 0.000000 0.000000 0.000000 -0.857375 -0.130414 -0.019315 1.105677 -0.777390 0.035670 1.562218 0.711584 -5.034404 -12.841013 -14.369137 24.537008 0.000000 0.000000 0.000000 0.000000 0.000000 0.000000 -0.725831 -0.483899 0.346126 1.499532 0.177471 -2.978449 -7.717554 -0.732020 5.276404 10.406089 -0.567637 -10.421794 0.000000 0.000000 0.000000 0.000000 0.000000 0.000000 -0.200215 -0.908844 -20.462065 -0.764760 -1.143403 -0.217632 0.987136 1.569050 -1.055927 0.000000 0.000000 0.000000 -1.053837 -0.889538 -20.617481 -0.126540 0.796350 -0.029184 0.932516 -0.513396 0.182172 0.000000 0.000000 0.000000
23.843632 79.894904 354.836793 -0.189501 0.927574 20.401264 -0.108881 -0.074630 -20.409211 -0.014114 0.080017 -0.010574 -0.898041 -1.887279 -0.427136 0.000000 0.000000 0.000000 -0.870828 -0.388869 0.023007 0.926423 -0.623204 0.891071 1.700238 0.415337 -5.660350 -14.566339 -18.209847 25.132888 0.000000 0.000000 0.000000 0.000000 0.000000 0.000000 -0.572202 -0.414581 0.348631 0.659809 0.319891 -2.601340 -6.775119 -0.594293 3.586531 11.936409 -1.037630 -8.095616 0.000000 0.000000 0.000000 0.000000 0.000000 0.000000 -0.145735 -0.935449 -20.400920 -0.692582 -1.553088 -0.224779 0.942410 2.012135 -1.190846 0.000000 0.000000 0.000000 -1.010235 -0.967499 -20.566496 -0.247873 0.414787 -0.059769 0.050435 3.568618 -0.321757 0.000000 0.000000 0.000000
23.841413 79.850394 354.712095 -0.213479 0.895712 20.269234 -0.073243 -0.095826 -20.276200 -0.003587 0.041004 -0.009254 -0.526258 -1.925682 -0.392838 0.000000 0.000000 0.000000 -1.374355 -0.003333 0.013918 1.286614 -0.115159 2.065187 1.907888 -5.052408 -8.041791 -14.395169 -14.557175 25.074924 0.000000 0.000000 0.000000 0.000000 0.000000 0.000000 -0.352320 -0.106502 0.384519 -0.606116 0.383353 -2.143851 -4.500796 -0.601911 1.689373 10.447317 -0.884444 -6.073345 0.000000 0.000000 0.000000 0.000000 0.000000 0.000000 -0.783150 -0.210411 -20.415049 0.342084 -2.348446 -0.072098 0.792338 2.380052 -1.219717 0.000000 0.000000 0.000000 -0.967207 -0.941995 -20.431404 -0.370059 0.143037 -0.096813 -0.628287 7.967971 -1.281192 0.000000 0.000000 0.000000
23.826471 79.812006 354.590641 -0.212468 0.833619 20.184513 -0.088214 -0.855733 -20.183626 -0.000000 0.000000 0.000000 -0.339777 -1.144320 -0.344892 0.000000 0.000000 0.000000 -1.961707 0.874844 0.039048 1.246964 -0.344393 3.552972 1.349386 -5.495942 -6.750713 -14.811887 -14.727178 21.428451 0.000000 0.000000 0.000000 0.000000 0.000000 0.000000 -0.037070 1.186213 0.426701 -0.756744 0.111910 -3.360532 -5.096493 -0.425922 0.398277 9.525247 -0.673248 -4.729052 0.000000 0.000000 0.000000 0.000000 0.000000 0.000000 -0.940636 0.391646 -20.414971 0.980496 -3.328982 0.054926 0.521376 2.902784 -1.253005 0.000000 0.000000 0.000000 -0.954975 -0.864711 -20.344405 -0.373877 -0.033899 -0.109228 -0.971420 11.369400 -2.336792 0.000000 0.000000 0.000000
